<svg width="6" height="14" viewBox="0 0 6 14" fill="none" xmlns="http://www.w3.org/2000/svg">
<path d="M0.375 3.5C0.375 2.80381 0.651562 2.13613 1.14384 1.64384C1.63613 1.15156 2.30381 0.875 3 0.875C3.69619 0.875 4.36387 1.15156 4.85616 1.64384C5.34844 2.13613 5.625 2.80381 5.625 3.5C5.625 5.04131 4.75613 7.2345 4.2425 8.39563C4.02638 8.88563 3.53681 9.1875 3 9.1875C2.46319 9.1875 1.97406 8.88563 1.7575 8.39563C1.24344 7.2345 0.375 5.04088 0.375 3.5ZM3 13.125C3.40611 13.125 3.79559 12.9637 4.08276 12.6765C4.36992 12.3893 4.53125 11.9999 4.53125 11.5938C4.53125 11.1876 4.36992 10.7982 4.08276 10.511C3.79559 10.2238 3.40611 10.0625 3 10.0625C2.59389 10.0625 2.20441 10.2238 1.91724 10.511C1.63008 10.7982 1.46875 11.1876 1.46875 11.5938C1.46875 11.9999 1.63008 12.3893 1.91724 12.6765C2.20441 12.9637 2.59389 13.125 3 13.125Z" fill="#D99BFF"/>
</svg>
