<svg width="13" height="14" viewBox="0 0 13 14" fill="none" xmlns="http://www.w3.org/2000/svg">
<path fill-rule="evenodd" clip-rule="evenodd" d="M6.00046 2.207V4H7.00046V2.207L9.64746 4.854L10.3545 4.146L6.85446 0.645996H6.14746L2.64746 4.146L3.35446 4.854L6.00046 2.207Z" fill="white"/>
<path d="M0.5 8L0 8.5V13.5L0.5 14H12.5L13 13.5V8.5L12.5 8H8.95C8.83524 8.56514 8.52864 9.07324 8.08213 9.43819C7.63562 9.80314 7.07668 10.0025 6.5 10.0025C5.92332 10.0025 5.36438 9.80314 4.91787 9.43819C4.47136 9.07324 4.16476 8.56514 4.05 8H0.5ZM9.663 9H12V13H1V9H3.337C3.62069 9.59881 4.06853 10.1048 4.62846 10.4591C5.18838 10.8134 5.83739 11.0015 6.5 11.0015C7.16261 11.0015 7.81162 10.8134 8.37154 10.4591C8.93147 10.1048 9.37931 9.59881 9.663 9ZM6 5H7V6H6V5ZM6 7H7V8H6V7Z" fill="white"/>
</svg>
