<svg width="24" height="19" viewBox="0 0 24 19" fill="none" xmlns="http://www.w3.org/2000/svg">
<g filter="url(#filter0_d_200_162)">
<path d="M19 2H11V9H3V0H1V15H3V12H21V15H23V6C23 4.93913 22.5786 3.92172 21.8284 3.17157C21.0783 2.42143 20.0609 2 19 2ZM7 8C7.79565 8 8.55871 7.68393 9.12132 7.12132C9.68393 6.55871 10 5.79565 10 5C10 4.20435 9.68393 3.44129 9.12132 2.87868C8.55871 2.31607 7.79565 2 7 2C6.20435 2 5.44129 2.31607 4.87868 2.87868C4.31607 3.44129 4 4.20435 4 5C4 5.79565 4.31607 6.55871 4.87868 7.12132C5.44129 7.68393 6.20435 8 7 8Z" fill="#D8B7EC"/>
</g>
<defs>
<filter id="filter0_d_200_162" x="-3" y="0" width="30" height="23" filterUnits="userSpaceOnUse" color-interpolation-filters="sRGB">
<feFlood flood-opacity="0" result="BackgroundImageFix"/>
<feColorMatrix in="SourceAlpha" type="matrix" values="0 0 0 0 0 0 0 0 0 0 0 0 0 0 0 0 0 0 127 0" result="hardAlpha"/>
<feOffset dy="4"/>
<feGaussianBlur stdDeviation="2"/>
<feComposite in2="hardAlpha" operator="out"/>
<feColorMatrix type="matrix" values="0 0 0 0 0 0 0 0 0 0 0 0 0 0 0 0 0 0 0.25 0"/>
<feBlend mode="normal" in2="BackgroundImageFix" result="effect1_dropShadow_200_162"/>
<feBlend mode="normal" in="SourceGraphic" in2="effect1_dropShadow_200_162" result="shape"/>
</filter>
</defs>
</svg>
