<svg width="12" height="18" viewBox="0 0 12 18" fill="none" xmlns="http://www.w3.org/2000/svg">
<path d="M3.42857 17.1V18H1.71429V17.1C1.25963 17.1 0.823594 16.9104 0.502103 16.5728C0.180612 16.2352 0 15.7774 0 15.3V1.8C0 1.32261 0.180612 0.864773 0.502103 0.527208C0.823594 0.189642 1.25963 0 1.71429 0H10.2857C10.7404 0 11.1764 0.189642 11.4979 0.527208C11.8194 0.864773 12 1.32261 12 1.8V15.3C12 15.7774 11.8194 16.2352 11.4979 16.5728C11.1764 16.9104 10.7404 17.1 10.2857 17.1V18H8.57143V17.1H3.42857ZM1.71429 1.8V6.3H10.2857V1.8H1.71429ZM1.71429 15.3H10.2857V8.1H1.71429V15.3ZM2.57143 9H4.28571V11.7H2.57143V9ZM2.57143 3.6H4.28571V5.4H2.57143V3.6Z" fill="#D8B7EC"/>
</svg>
