<svg width="28" height="28" viewBox="0 0 28 28" fill="none" xmlns="http://www.w3.org/2000/svg">
<path d="M13 12H14V21H15M27 14C27 17.4478 25.6304 20.7544 23.1924 23.1924C20.7544 25.6304 17.4478 27 14 27C10.5522 27 7.24558 25.6304 4.80761 23.1924C2.36964 20.7544 1 17.4478 1 14C1 10.5522 2.36964 7.24558 4.80761 4.80761C7.24558 2.36964 10.5522 1 14 1C17.4478 1 20.7544 2.36964 23.1924 4.80761C25.6304 7.24558 27 10.5522 27 14Z" stroke="black" stroke-width="2" stroke-linecap="round" stroke-linejoin="round"/>
<path d="M15 7.5C15 7.76522 14.8946 8.01957 14.7071 8.20711C14.5196 8.39464 14.2652 8.5 14 8.5C13.7348 8.5 13.4804 8.39464 13.2929 8.20711C13.1054 8.01957 13 7.76522 13 7.5C13 7.23478 13.1054 6.98043 13.2929 6.79289C13.4804 6.60536 13.7348 6.5 14 6.5C14.2652 6.5 14.5196 6.60536 14.7071 6.79289C14.8946 6.98043 15 7.23478 15 7.5Z" fill="black" stroke="black"/>
</svg>
