<svg width="22" height="22" viewBox="0 0 22 22" fill="none" xmlns="http://www.w3.org/2000/svg">
<path d="M9.77765 15.4817C9.77765 15.8058 9.90642 16.1167 10.1356 16.3459C10.3648 16.5751 10.6757 16.7039 10.9999 16.7039C11.324 16.7039 11.6349 16.5751 11.8641 16.3459C12.0933 16.1167 12.2221 15.8058 12.2221 15.4817C12.2221 15.1576 12.0933 14.8467 11.8641 14.6175C11.6349 14.3883 11.324 14.2595 10.9999 14.2595C10.6757 14.2595 10.3648 14.3883 10.1356 14.6175C9.90642 14.8467 9.77765 15.1576 9.77765 15.4817ZM11.611 12.63C11.723 12.63 11.8147 12.5383 11.8147 12.4263V5.50057C11.8147 5.38853 11.723 5.29687 11.611 5.29687H10.3888C10.2767 5.29687 10.185 5.38853 10.185 5.50057V12.4263C10.185 12.5383 10.2767 12.63 10.3888 12.63H11.611ZM21.796 7.84308H20.286C20.2198 7.84308 20.1587 7.87363 20.1205 7.9271L17.4088 11.6649L16.1382 9.91315C16.1194 9.88691 16.0945 9.86558 16.0657 9.85096C16.0369 9.83634 16.005 9.82885 15.9727 9.82912H14.4628C14.2973 9.82912 14.2005 10.0175 14.2973 10.1525L17.0778 13.9896C17.1158 14.0417 17.1656 14.0841 17.2232 14.1133C17.2807 14.1425 17.3443 14.1577 17.4088 14.1577C17.4733 14.1577 17.5369 14.1425 17.5944 14.1133C17.6519 14.0841 17.7017 14.0417 17.7398 13.9896L21.9615 8.16645C22.0582 8.0315 21.9615 7.84308 21.796 7.84308ZM20.6756 15.6345H19.0409C18.9009 15.6345 18.771 15.7083 18.6946 15.8254C18.3332 16.3996 17.9078 16.9309 17.4266 17.4092C16.5994 18.237 15.6198 18.8967 14.5417 19.3519C13.4241 19.8233 12.223 20.0649 11.01 20.0623C9.78529 20.0623 8.59619 19.823 7.47838 19.3519C6.40032 18.8967 5.42064 18.237 4.59347 17.4092C3.76363 16.5842 3.10283 15.6051 2.64813 14.5269C2.17453 13.4116 1.93518 12.2226 1.93518 11.0004C1.93518 9.7782 2.17453 8.58912 2.64813 7.47388C3.10391 6.39429 3.7583 5.42418 4.59347 4.59157C5.42864 3.75896 6.39877 3.10459 7.47838 2.64881C8.59601 2.17747 9.79708 1.93587 11.01 1.93842C12.2348 1.93842 13.4239 2.17777 14.5417 2.64881C15.6213 3.10459 16.5914 3.75896 17.4266 4.59157C17.9104 5.07535 18.3331 5.60496 18.6946 6.17531C18.7685 6.29499 18.9009 6.36628 19.0409 6.36628H20.6756C20.8284 6.36628 20.9252 6.20587 20.859 6.07092C19.0664 2.50877 15.3972 0.0516813 11.145 0.000757161C5.06453 -0.0705367 0.0127559 4.90221 2.45795e-05 10.98C-0.0127067 17.0629 4.92194 22 11.01 22C15.3183 22 19.046 19.5302 20.8564 15.9298C20.872 15.8989 20.8795 15.8644 20.878 15.8298C20.8766 15.7951 20.8663 15.7614 20.8482 15.7318C20.8301 15.7023 20.8048 15.6778 20.7746 15.6608C20.7444 15.6437 20.7103 15.6347 20.6756 15.6345Z" fill="#D99BFF"/>
</svg>
