<svg width="17" height="18" viewBox="0 0 17 18" fill="none" xmlns="http://www.w3.org/2000/svg">
<path d="M9.5 5.0625C9.5 4.16739 9.81607 3.30895 10.3787 2.67601C10.9413 2.04308 11.7044 1.6875 12.5 1.6875C13.2956 1.6875 14.0587 2.04308 14.6213 2.67601C15.1839 3.30895 15.5 4.16739 15.5 5.0625C15.5 5.95761 15.1839 6.81605 14.6213 7.44899C14.0587 8.08192 13.2956 8.4375 12.5 8.4375C11.7044 8.4375 10.9413 8.08192 10.3787 7.44899C9.81607 6.81605 9.5 5.95761 9.5 5.0625ZM8.1125 6.1875C8.56563 8.44102 10.3594 10.125 12.5 10.125C14.9844 10.125 17 7.85742 17 5.0625C17 2.26758 14.9844 0 12.5 0C10.3594 0 8.56563 1.68398 8.1125 3.9375H5.86875C5.59375 3.59297 5.19375 3.375 4.75 3.375H1.5C0.671875 3.375 0 4.13086 0 5.0625C0 5.99414 0.671875 6.75 1.5 6.75H4.75C5.19375 6.75 5.59375 6.53203 5.86875 6.1875H8.1125ZM12.5 2.8125C11.9696 2.8125 11.4609 3.04955 11.0858 3.47151C10.7107 3.89347 10.5 4.46576 10.5 5.0625C10.5 5.65924 10.7107 6.23153 11.0858 6.65349C11.4609 7.07545 11.9696 7.3125 12.5 7.3125C13.0304 7.3125 13.5391 7.07545 13.9142 6.65349C14.2893 6.23153 14.5 5.65924 14.5 5.0625C14.5 4.46576 14.2893 3.89347 13.9142 3.47151C13.5391 3.04955 13.0304 2.8125 12.5 2.8125ZM4.5 8.4375C4.08437 8.4375 3.75 8.81367 3.75 9.28125V9.5625H0.75C0.334375 9.5625 0 9.93867 0 10.4062C0 10.8738 0.334375 11.25 0.75 11.25H8.25C8.66563 11.25 9 10.8738 9 10.4062C9 9.93867 8.66563 9.5625 8.25 9.5625H5.25V9.28125C5.25 8.81367 4.91563 8.4375 4.5 8.4375ZM8 16.3125V12.375H1V16.3125C1 17.2441 1.67188 18 2.5 18H6.5C7.32812 18 8 17.2441 8 16.3125ZM15.5 11.25H11.5C10.6719 11.25 10 12.0059 10 12.9375C10 13.8691 10.6719 14.625 11.5 14.625H12C12 15.2473 12.4469 15.75 13 15.75H15C15.5531 15.75 16 15.2473 16 14.625V11.8125C16 11.5031 15.775 11.25 15.5 11.25ZM11.5 13.5C11.225 13.5 11 13.2469 11 12.9375C11 12.6281 11.225 12.375 11.5 12.375H12V13.5H11.5ZM16.25 16.3125H10.75C10.3344 16.3125 10 16.6887 10 17.1562C10 17.6238 10.3344 18 10.75 18H16.25C16.6656 18 17 17.6238 17 17.1562C17 16.6887 16.6656 16.3125 16.25 16.3125Z" fill="#D8B7EC"/>
</svg>
