<svg width="10" height="12" viewBox="0 0 10 12" fill="none" xmlns="http://www.w3.org/2000/svg">
<path d="M4.9998 12C4.9998 12 0.799805 6.522 0.799805 4.2C0.799805 3.64845 0.908441 3.1023 1.11951 2.59273C1.33058 2.08316 1.63995 1.62016 2.02996 1.23015C2.41996 0.840145 2.88297 0.530776 3.39253 0.319706C3.9021 0.108636 4.44825 0 4.9998 0C5.55136 0 6.09751 0.108636 6.60707 0.319706C7.11664 0.530776 7.57965 0.840145 7.96965 1.23015C8.35966 1.62016 8.66903 2.08316 8.8801 2.59273C9.09117 3.1023 9.1998 3.64845 9.1998 4.2C9.1998 6.522 4.9998 12 4.9998 12ZM4.9998 5.4C5.31806 5.4 5.62329 5.27357 5.84833 5.04853C6.07338 4.82348 6.1998 4.51826 6.1998 4.2C6.1998 3.88174 6.07338 3.57652 5.84833 3.35147C5.62329 3.12643 5.31806 3 4.9998 3C4.68154 3 4.37632 3.12643 4.15128 3.35147C3.92623 3.57652 3.7998 3.88174 3.7998 4.2C3.7998 4.51826 3.92623 4.82348 4.15128 5.04853C4.37632 5.27357 4.68154 5.4 4.9998 5.4Z" fill="#D99BFF"/>
</svg>
