<svg width="12" height="12" viewBox="0 0 12 12" fill="none" xmlns="http://www.w3.org/2000/svg">
<g clip-path="url(#clip0_409_279)">
<path d="M5.9998 12C5.9998 12 1.7998 6.522 1.7998 4.2C1.7998 3.64845 1.90844 3.1023 2.11951 2.59273C2.33058 2.08316 2.63995 1.62016 3.02996 1.23015C3.41996 0.840145 3.88297 0.530776 4.39253 0.319706C4.9021 0.108636 5.44825 0 5.9998 0C6.55136 0 7.09751 0.108636 7.60707 0.319706C8.11664 0.530776 8.57965 0.840145 8.96965 1.23015C9.35966 1.62016 9.66903 2.08316 9.8801 2.59273C10.0912 3.1023 10.1998 3.64845 10.1998 4.2C10.1998 6.522 5.9998 12 5.9998 12ZM5.9998 5.4C6.31806 5.4 6.62329 5.27357 6.84833 5.04853C7.07338 4.82348 7.1998 4.51826 7.1998 4.2C7.1998 3.88174 7.07338 3.57652 6.84833 3.35147C6.62329 3.12643 6.31806 3 5.9998 3C5.68154 3 5.37632 3.12643 5.15128 3.35147C4.92623 3.57652 4.7998 3.88174 4.7998 4.2C4.7998 4.51826 4.92623 4.82348 5.15128 5.04853C5.37632 5.27357 5.68154 5.4 5.9998 5.4Z" fill="#1C90FB"/>
</g>
<defs>
<clipPath id="clip0_409_279">
<rect width="12" height="12" fill="white"/>
</clipPath>
</defs>
</svg>
