<svg width="10" height="14" viewBox="0 0 10 14" fill="none" xmlns="http://www.w3.org/2000/svg">
<path d="M5.0001 14C5.0001 14 0.100098 7.609 0.100098 4.9C0.100098 4.25652 0.22684 3.61935 0.473088 3.02485C0.719336 2.43036 1.08027 1.89018 1.53527 1.43518C1.99028 0.98017 2.53045 0.619238 3.12495 0.37299C3.71944 0.126742 4.35662 0 5.0001 0C5.64357 0 6.28075 0.126742 6.87525 0.37299C7.46974 0.619238 8.00991 0.98017 8.46492 1.43518C8.91993 1.89018 9.28086 2.43036 9.52711 3.02485C9.77335 3.61935 9.9001 4.25652 9.9001 4.9C9.9001 7.609 5.0001 14 5.0001 14ZM5.0001 6.3C5.3714 6.3 5.7275 6.1525 5.99005 5.88995C6.2526 5.6274 6.4001 5.2713 6.4001 4.9C6.4001 4.5287 6.2526 4.1726 5.99005 3.91005C5.7275 3.6475 5.3714 3.5 5.0001 3.5C4.62879 3.5 4.2727 3.6475 4.01015 3.91005C3.7476 4.1726 3.6001 4.5287 3.6001 4.9C3.6001 5.2713 3.7476 5.6274 4.01015 5.88995C4.2727 6.1525 4.62879 6.3 5.0001 6.3Z" fill="#FF5876"/>
</svg>
