<svg width="24" height="18" viewBox="0 0 24 18" fill="none" xmlns="http://www.w3.org/2000/svg">
<path fill-rule="evenodd" clip-rule="evenodd" d="M0 2.14286C0 1.6882 0.180612 1.25217 0.502103 0.930676C0.823594 0.609185 1.25963 0.428574 1.71429 0.428574H22.2857C22.7404 0.428574 23.1764 0.609185 23.4979 0.930676C23.8194 1.25217 24 1.6882 24 2.14286V15.8571C24 16.3118 23.8194 16.7478 23.4979 17.0693C23.1764 17.3908 22.7404 17.5714 22.2857 17.5714H1.71429C1.25963 17.5714 0.823594 17.3908 0.502103 17.0693C0.180612 16.7478 0 16.3118 0 15.8571V2.14286ZM4.36457 4.008H15.3497C15.9 4.008 16.3474 4.45372 16.3474 5.00572V12.9943C16.3474 13.5463 15.9017 13.992 15.3497 13.992H4.36457C4.23342 13.9925 4.10348 13.967 3.98223 13.917C3.86097 13.867 3.75081 13.7935 3.65807 13.7008C3.56533 13.6081 3.49186 13.4979 3.44188 13.3766C3.3919 13.2554 3.3664 13.1254 3.36686 12.9943V5.00572C3.36686 4.45372 3.81257 4.008 4.36457 4.008ZM18.3291 5.29029C18.3291 4.69886 18.8091 4.21886 19.4006 4.21886H21.1937C21.4779 4.21886 21.7504 4.33174 21.9513 4.53267C22.1523 4.73361 22.2651 5.00613 22.2651 5.29029C22.2651 5.57445 22.1523 5.84697 21.9513 6.0479C21.7504 6.24883 21.4779 6.36172 21.1937 6.36172H19.4006C19.1164 6.36172 18.8439 6.24883 18.643 6.0479C18.442 5.84697 18.3291 5.57445 18.3291 5.29029ZM19.4006 7.92857C19.1164 7.92857 18.8439 8.04146 18.643 8.24239C18.442 8.44332 18.3291 8.71584 18.3291 9C18.3291 9.28416 18.442 9.55668 18.643 9.75762C18.8439 9.95855 19.1164 10.0714 19.4006 10.0714H21.1937C21.4779 10.0714 21.7504 9.95855 21.9513 9.75762C22.1523 9.55668 22.2651 9.28416 22.2651 9C22.2651 8.71584 22.1523 8.44332 21.9513 8.24239C21.7504 8.04146 21.4779 7.92857 21.1937 7.92857H19.4006Z" fill="#D8B7EC"/>
</svg>
