<svg width="14" height="17" viewBox="0 0 14 17" fill="none" xmlns="http://www.w3.org/2000/svg">
<path d="M7.00001 0.5C5.60762 0.5 4.27226 1.05312 3.2877 2.03769C2.30313 3.02226 1.75001 4.35761 1.75001 5.75V8.396C1.75012 8.51235 1.72316 8.62712 1.67126 8.73125L0.383509 11.306C0.320604 11.4318 0.2909 11.5716 0.29722 11.7121C0.30354 11.8526 0.345673 11.9891 0.419618 12.1088C0.493562 12.2284 0.596863 12.3271 0.719709 12.3956C0.842555 12.4641 0.980867 12.5 1.12151 12.5H12.8785C13.0192 12.5 13.1575 12.4641 13.2803 12.3956C13.4032 12.3271 13.5065 12.2284 13.5804 12.1088C13.6543 11.9891 13.6965 11.8526 13.7028 11.7121C13.7091 11.5716 13.6794 11.4318 13.6165 11.306L12.3295 8.73125C12.2774 8.62718 12.2501 8.51241 12.25 8.396V5.75C12.25 4.35761 11.6969 3.02226 10.7123 2.03769C9.72775 1.05312 8.3924 0.5 7.00001 0.5ZM7.00001 14.75C6.53452 14.7502 6.08041 14.6061 5.70027 14.3375C5.32013 14.0688 5.03267 13.6889 4.87751 13.25H9.12251C8.96735 13.6889 8.67989 14.0688 8.29975 14.3375C7.9196 14.6061 7.4655 14.7502 7.00001 14.75Z" fill="#2C2C2C"/>
</svg>
