<svg width="59" height="25" viewBox="0 0 59 25" fill="none" xmlns="http://www.w3.org/2000/svg">
<path d="M14.6307 12.7273C14.6307 14.3134 14.33 15.6629 13.7287 16.7756C13.1321 17.8883 12.3177 18.7382 11.2855 19.3253C10.258 19.9077 9.10275 20.1989 7.8196 20.1989C6.52699 20.1989 5.36695 19.9053 4.33949 19.3182C3.31203 18.7311 2.5 17.8812 1.90341 16.7685C1.30682 15.6558 1.00852 14.3087 1.00852 12.7273C1.00852 11.1411 1.30682 9.79167 1.90341 8.67898C2.5 7.56629 3.31203 6.71875 4.33949 6.13636C5.36695 5.54924 6.52699 5.25568 7.8196 5.25568C9.10275 5.25568 10.258 5.54924 11.2855 6.13636C12.3177 6.71875 13.1321 7.56629 13.7287 8.67898C14.33 9.79167 14.6307 11.1411 14.6307 12.7273ZM11.5128 12.7273C11.5128 11.6998 11.3589 10.8333 11.0511 10.1278C10.7481 9.42235 10.3196 8.88731 9.76562 8.52273C9.21165 8.15814 8.56297 7.97585 7.8196 7.97585C7.07623 7.97585 6.42756 8.15814 5.87358 8.52273C5.3196 8.88731 4.88873 9.42235 4.58097 10.1278C4.27794 10.8333 4.12642 11.6998 4.12642 12.7273C4.12642 13.7547 4.27794 14.6212 4.58097 15.3267C4.88873 16.0322 5.3196 16.5672 5.87358 16.9318C6.42756 17.2964 7.07623 17.4787 7.8196 17.4787C8.56297 17.4787 9.21165 17.2964 9.76562 16.9318C10.3196 16.5672 10.7481 16.0322 11.0511 15.3267C11.3589 14.6212 11.5128 13.7547 11.5128 12.7273ZM24.7994 9.63778C24.7425 9.06487 24.4987 8.61979 24.0678 8.30256C23.637 7.98532 23.0522 7.8267 22.3136 7.8267C21.8117 7.8267 21.3879 7.89773 21.0423 8.03977C20.6966 8.17708 20.4315 8.36884 20.2468 8.61506C20.0669 8.86127 19.9769 9.14062 19.9769 9.45312C19.9674 9.71354 20.0219 9.94081 20.1403 10.1349C20.2634 10.3291 20.4315 10.4972 20.6445 10.6392C20.8576 10.7765 21.1038 10.8973 21.3832 11.0014C21.6625 11.1009 21.9608 11.1861 22.2781 11.2571L23.5849 11.5696C24.2193 11.7116 24.8017 11.901 25.332 12.1378C25.8623 12.3745 26.3216 12.6657 26.7099 13.0114C27.0981 13.357 27.3988 13.7642 27.6119 14.233C27.8297 14.7017 27.9409 15.2391 27.9457 15.8452C27.9409 16.7353 27.7137 17.5071 27.2638 18.1605C26.8188 18.8092 26.1748 19.3134 25.332 19.6733C24.494 20.0284 23.4831 20.206 22.2994 20.206C21.1251 20.206 20.1024 20.026 19.2312 19.6662C18.3647 19.3063 17.6876 18.7737 17.1999 18.0682C16.717 17.358 16.4637 16.4796 16.44 15.4332H19.4158C19.449 15.9209 19.5887 16.3281 19.8349 16.6548C20.0858 16.9768 20.4196 17.2206 20.8363 17.3864C21.2577 17.5473 21.7335 17.6278 22.2638 17.6278C22.7847 17.6278 23.2369 17.5521 23.6204 17.4006C24.0086 17.2491 24.3093 17.0384 24.5224 16.7685C24.7354 16.4986 24.842 16.1884 24.842 15.8381C24.842 15.5114 24.7449 15.2367 24.5508 15.0142C24.3614 14.7917 24.082 14.6023 23.7127 14.446C23.3481 14.2898 22.9007 14.1477 22.3704 14.0199L20.7866 13.6222C19.5603 13.3239 18.592 12.8575 17.8817 12.223C17.1715 11.5885 16.8188 10.7339 16.8235 9.65909C16.8188 8.77841 17.0531 8.009 17.5266 7.35085C18.0049 6.69271 18.6606 6.17898 19.494 5.80966C20.3273 5.44034 21.2743 5.25568 22.3349 5.25568C23.4144 5.25568 24.3567 5.44034 25.1616 5.80966C25.9712 6.17898 26.601 6.69271 27.0508 7.35085C27.5006 8.009 27.7326 8.77131 27.7468 9.63778H24.7994ZM32.1893 20H28.8938L33.9151 5.45455H37.8782L42.8924 20H39.5969L35.9535 8.77841H35.8398L32.1893 20ZM31.9833 14.2827H39.7674V16.6832H31.9833V14.2827ZM44.6431 20V5.45455H47.7184V11.456H53.9613V5.45455H57.0295V20H53.9613V13.9915H47.7184V20H44.6431Z" fill="#F8F8F8"/>
<rect x="30" y="2" width="12" height="1" fill="#D9D9D9"/>
<rect x="32" width="8" height="2" fill="#D9D9D9"/>
</svg>
