<svg width="10" height="10" viewBox="0 0 10 10" fill="none" xmlns="http://www.w3.org/2000/svg">
<path fill-rule="evenodd" clip-rule="evenodd" d="M3 2.5C3 1.96957 3.21071 1.46086 3.58579 1.08579C3.96086 0.710714 4.46957 0.5 5 0.5C5.53043 0.5 6.03914 0.710714 6.41421 1.08579C6.78929 1.46086 7 1.96957 7 2.5C7 3.03043 6.78929 3.53914 6.41421 3.91421C6.03914 4.28929 5.53043 4.5 5 4.5C4.46957 4.5 3.96086 4.28929 3.58579 3.91421C3.21071 3.53914 3 3.03043 3 2.5ZM3 5.5C2.33696 5.5 1.70107 5.76339 1.23223 6.23223C0.763392 6.70107 0.5 7.33696 0.5 8C0.5 8.39782 0.658035 8.77936 0.93934 9.06066C1.22064 9.34196 1.60218 9.5 2 9.5H8C8.39782 9.5 8.77936 9.34196 9.06066 9.06066C9.34196 8.77936 9.5 8.39782 9.5 8C9.5 7.33696 9.23661 6.70107 8.76777 6.23223C8.29893 5.76339 7.66304 5.5 7 5.5H3Z" fill="#D99BFF"/>
</svg>
