<svg width="21" height="22" viewBox="0 0 21 22" fill="none" xmlns="http://www.w3.org/2000/svg">
<path d="M2.5 9C2.5 5.229 2.5 3.343 3.672 2.172C4.844 1.001 6.729 1 10.5 1H12C15.771 1 17.657 1 18.828 2.172C19.999 3.344 20 5.229 20 9V13C20 16.771 20 18.657 18.828 19.828C17.656 20.999 15.771 21 12 21H10.5C6.729 21 4.843 21 3.672 19.828C2.501 18.656 2.5 16.771 2.5 13V9Z" stroke="white" stroke-width="1.5" stroke-linecap="round" stroke-linejoin="round"/>
<path d="M8.3 10.974C7.873 10.23 7.667 9.623 7.543 9.007C7.359 8.097 7.78 7.207 8.476 6.639C8.771 6.399 9.108 6.481 9.282 6.794L9.675 7.499C9.986 8.057 10.142 8.337 10.111 8.633C10.081 8.929 9.871 9.17 9.451 9.653L8.3 10.974ZM8.3 10.974C9.20011 12.5164 10.4836 13.7999 12.026 14.7M12.026 14.7C12.77 15.127 13.377 15.333 13.993 15.457C14.903 15.641 15.793 15.22 16.361 14.524C16.601 14.229 16.519 13.892 16.206 13.718L15.502 13.325C14.942 13.014 14.663 12.858 14.367 12.889C14.071 12.919 13.83 13.129 13.347 13.549L12.026 14.7ZM3.5 5H1M3.5 11H1M3.5 17H1" stroke="white" stroke-width="1.5" stroke-linecap="round" stroke-linejoin="round"/>
</svg>
