<svg width="26" height="25" viewBox="0 0 26 25" fill="none" xmlns="http://www.w3.org/2000/svg">
<path d="M5.20833 15.125H20.7917V13.7083H5.20833V15.125ZM5.20833 10.875H20.7917V9.45834H5.20833V10.875ZM5.20833 6.625H20.7917V5.20834H5.20833V6.625ZM2.53933 20.0833C1.88672 20.0833 1.34225 19.8652 0.905917 19.4288C0.469583 18.9925 0.250944 18.448 0.25 17.7954V2.53792C0.25 1.88625 0.468639 1.34178 0.905917 0.904503C1.34319 0.467225 1.88719 0.249059 2.53792 0.250003H23.4621C24.1137 0.250003 24.6578 0.46817 25.0941 0.904503C25.5304 1.34084 25.7491 1.88531 25.75 2.53792V24.4424L21.3909 20.0833H2.53933Z" fill="black"/>
</svg>
