<svg width="18" height="18" viewBox="0 0 18 18" fill="none" xmlns="http://www.w3.org/2000/svg">
<path d="M3.5 10.5H14.5V9.5H3.5V10.5ZM3.5 7.5H14.5V6.5H3.5V7.5ZM3.5 4.5H14.5V3.5H3.5V4.5ZM1.616 14C1.15533 14 0.771 13.846 0.463 13.538C0.155 13.23 0.000666667 12.8457 0 12.385V1.615C0 1.155 0.154333 0.770669 0.463 0.462002C0.771667 0.153335 1.15567 -0.000664511 1.615 2.15517e-06H16.385C16.845 2.15517e-06 17.229 0.154002 17.537 0.462002C17.845 0.770002 17.9993 1.15434 18 1.615V17.077L14.923 14H1.616Z" fill="#D99BFF"/>
</svg>
