<svg width="18" height="18" viewBox="0 0 18 18" fill="none" xmlns="http://www.w3.org/2000/svg">
<path d="M16.4851 17.154L10.2231 10.892C9.7231 11.318 9.14811 11.6477 8.49811 11.881C7.84811 12.1143 7.19477 12.231 6.53811 12.231C4.93677 12.231 3.58144 11.6767 2.47211 10.568C1.36277 9.45935 0.808105 8.10435 0.808105 6.50302C0.808105 4.90168 1.36211 3.54601 2.47011 2.43601C3.57811 1.32601 4.93277 0.770348 6.53411 0.769015C8.13544 0.767682 9.49144 1.32235 10.6021 2.43301C11.7128 3.54368 12.2681 4.89935 12.2681 6.50001C12.2681 7.19468 12.1451 7.86701 11.8991 8.51701C11.6531 9.16702 11.3298 9.72302 10.9291 10.185L17.1911 16.446L16.4851 17.154ZM6.5391 11.23C7.86577 11.23 8.98577 10.7733 9.89911 9.86001C10.8124 8.94668 11.2691 7.82635 11.2691 6.49901C11.2691 5.17168 10.8124 4.05168 9.89911 3.13901C8.98577 2.22635 7.86577 1.76968 6.5391 1.76901C5.21244 1.76835 4.09211 2.22501 3.17811 3.13901C2.26411 4.05301 1.80744 5.17301 1.80811 6.49901C1.80877 7.82501 2.26544 8.94502 3.17811 9.85902C4.09077 10.773 5.21077 11.2297 6.53811 11.229" fill="#D99BFF"/>
</svg>
