<svg width="22" height="22" viewBox="0 0 22 22" fill="none" xmlns="http://www.w3.org/2000/svg">
<path d="M9.91337 12.0852C9.72226 11.8945 9.49449 11.7444 9.24381 11.644L1.31381 8.46399C1.21912 8.426 1.13833 8.35996 1.08226 8.27472C1.0262 8.18949 0.997552 8.08914 1.00016 7.98715C1.00278 7.88517 1.03652 7.78642 1.09688 7.70417C1.15723 7.62191 1.2413 7.56009 1.33781 7.527L20.3378 1.027C20.4264 0.994991 20.5223 0.988884 20.6143 1.00939C20.7062 1.02989 20.7904 1.07616 20.857 1.14277C20.9236 1.20939 20.9699 1.2936 20.9904 1.38555C21.0109 1.4775 21.0048 1.57339 20.9728 1.662L14.4728 20.662C14.4397 20.7585 14.3779 20.8426 14.2956 20.9029C14.2134 20.9633 14.1146 20.997 14.0126 20.9996C13.9107 21.0022 13.8103 20.9736 13.7251 20.9175C13.6398 20.8615 13.5738 20.7807 13.5358 20.686L10.3558 12.754C10.255 12.5035 10.1045 12.276 9.91337 12.0852ZM9.91337 12.0852L20.8538 1.147" stroke="white" stroke-width="2" stroke-linecap="round" stroke-linejoin="round"/>
</svg>
