<svg width="18" height="18" viewBox="0 0 18 18" fill="none" xmlns="http://www.w3.org/2000/svg">
<path d="M9.921 3.57899L12.1935 1.30649C12.6384 0.861417 13.2054 0.558299 13.8226 0.435484C14.4399 0.312668 15.0797 0.375674 15.6611 0.61653C16.2425 0.857386 16.7395 1.26527 17.089 1.78859C17.4386 2.31191 17.6251 2.92715 17.625 3.55649V18M4.35225 5.96549L3.2925 7.02599M3.02775 8.88224L1.965 9.94274M1.43475 7.29149L0.375 8.35199M4.61775 10.4737L3.55725 11.5342M6.2085 12.0645L5.148 13.125M7.5345 9.14774L6.474 10.2075M5.94375 7.55549L4.8825 8.61749M8.06475 1.72274L7.9485 1.83899C7.16925 2.61825 6.13113 3.08447 5.031 3.14924L4.485 3.18149L4.35225 3.31424L10.1865 9.14774L10.3185 9.01499L10.3507 8.46899C10.4155 7.36886 10.8817 6.33075 11.661 5.55149L11.7773 5.43524L8.06475 1.72274Z" stroke="#D8B7EC"/>
</svg>
