<svg width="33" height="32" viewBox="0 0 33 32" fill="none" xmlns="http://www.w3.org/2000/svg">
<path d="M16.0338 2.35359C16.1988 1.92786 16.8012 1.92785 16.9662 2.3536L19.8166 9.70811C20.3132 10.9894 21.5136 11.8615 22.8856 11.9379L30.761 12.3761C31.2169 12.4015 31.4031 12.9744 31.0492 13.2629L24.9354 18.2465C23.8703 19.1147 23.4118 20.5259 23.7632 21.8543L25.78 29.4797C25.8968 29.9211 25.4094 30.2752 25.0257 30.0277L18.3967 25.7533C17.2419 25.0086 15.7581 25.0086 14.6033 25.7533L7.97433 30.0277C7.5906 30.2752 7.10324 29.9211 7.22 29.4797L9.23682 21.8543C9.58818 20.5258 9.12967 19.1147 8.06457 18.2465L1.95085 13.2629C1.59694 12.9744 1.78307 12.4015 2.23898 12.3761L10.1144 11.9379C11.4864 11.8615 12.6868 10.9894 13.1834 9.7081L16.0338 2.35359Z" fill="white" stroke="black" stroke-width="3"/>
</svg>
