<svg width="16" height="16" viewBox="0 0 16 16" fill="none" xmlns="http://www.w3.org/2000/svg">
<path fill-rule="evenodd" clip-rule="evenodd" d="M7.00046 3.207V5H8.00046V3.207L10.6475 5.854L11.3545 5.146L7.85446 1.646H7.14746L3.64746 5.146L4.35446 5.854L7.00046 3.207Z" fill="white"/>
<path d="M1.5 9L1 9.5V14.5L1.5 15H13.5L14 14.5V9.5L13.5 9H9.95C9.83524 9.56514 9.52864 10.0732 9.08213 10.4382C8.63562 10.8031 8.07668 11.0025 7.5 11.0025C6.92332 11.0025 6.36438 10.8031 5.91787 10.4382C5.47136 10.0732 5.16476 9.56514 5.05 9H1.5ZM10.663 10H13V14H2V10H4.337C4.62069 10.5988 5.06853 11.1048 5.62846 11.4591C6.18838 11.8134 6.83739 12.0015 7.5 12.0015C8.16261 12.0015 8.81162 11.8134 9.37154 11.4591C9.93147 11.1048 10.3793 10.5988 10.663 10ZM7 6H8V7H7V6ZM7 8H8V9H7V8Z" fill="white"/>
</svg>
