<svg width="14" height="14" viewBox="0 0 14 14" fill="none" xmlns="http://www.w3.org/2000/svg">
<path d="M0.661133 13.7035H13.3361C13.4356 13.7035 13.531 13.664 13.6013 13.5937C13.6716 13.5233 13.7111 13.4279 13.7111 13.3285C13.7111 13.229 13.6716 13.1337 13.6013 13.0633C13.531 12.993 13.4356 12.9535 13.3361 12.9535H0.661133C0.561677 12.9535 0.466294 12.993 0.395968 13.0633C0.325642 13.1337 0.286133 13.229 0.286133 13.3285C0.286133 13.4279 0.325642 13.5233 0.395968 13.5937C0.466294 13.664 0.561677 13.7035 0.661133 13.7035ZM5.28263 10.885C5.59927 10.7959 5.88823 10.6282 6.12263 10.3975L13.2776 3.24249C13.5227 2.9965 13.6602 2.66344 13.6602 2.31624C13.6602 1.96904 13.5227 1.63598 13.2776 1.38999L12.5726 0.692492C12.323 0.454525 11.9913 0.321777 11.6464 0.321777C11.3015 0.321777 10.9698 0.454525 10.7201 0.692492L3.56513 7.83999C3.33441 8.07318 3.1689 8.36282 3.08513 8.67999L2.53013 10.75C2.50404 10.8446 2.50348 10.9444 2.52851 11.0392C2.55354 11.1341 2.60327 11.2206 2.67263 11.29C2.77892 11.3942 2.92132 11.4533 3.07013 11.455L5.28263 10.885ZM5.59013 9.86499C5.45182 10.0057 5.27829 10.1067 5.08763 10.1575L4.36013 10.3525L3.61013 9.60249L3.80513 8.87499C3.85692 8.68475 3.95778 8.51147 4.09763 8.37249L4.38263 8.09499L5.87513 9.58749L5.59013 9.86499ZM6.40763 9.05499L4.91513 7.56249L9.96263 2.51499L11.4551 4.00749L6.40763 9.05499ZM12.7451 2.71749L11.9876 3.47499L10.4951 1.98249L11.2526 1.21749C11.3581 1.11215 11.5011 1.05299 11.6501 1.05299C11.7992 1.05299 11.9422 1.11215 12.0476 1.21749L12.7451 1.92249C12.8497 2.02835 12.9084 2.17117 12.9084 2.31999C12.9084 2.46881 12.8497 2.61164 12.7451 2.71749Z" fill="white"/>
</svg>
