<svg width="24" height="24" viewBox="0 0 24 24" fill="none" xmlns="http://www.w3.org/2000/svg">
<path d="M1.43457 23.1725H22.5596C22.7253 23.1725 22.8843 23.1067 23.0015 22.9894C23.1187 22.8722 23.1846 22.7133 23.1846 22.5475C23.1846 22.3817 23.1187 22.2228 23.0015 22.1056C22.8843 21.9883 22.7253 21.9225 22.5596 21.9225H1.43457C1.26881 21.9225 1.10984 21.9883 0.992628 22.1056C0.875418 22.2228 0.80957 22.3817 0.80957 22.5475C0.80957 22.7133 0.875418 22.8722 0.992628 22.9894C1.10984 23.1067 1.26881 23.1725 1.43457 23.1725ZM9.13707 18.475C9.66479 18.3266 10.1464 18.0471 10.5371 17.6625L22.4621 5.7375C22.8704 5.32752 23.0997 4.77242 23.0997 4.19375C23.0997 3.61508 22.8704 3.05999 22.4621 2.65L21.2871 1.4875C20.871 1.09089 20.3182 0.869644 19.7433 0.869644C19.1685 0.869644 18.6157 1.09089 18.1996 1.4875L6.27457 13.4C5.89002 13.7887 5.61418 14.2714 5.47457 14.8L4.54957 18.25C4.50608 18.4076 4.50515 18.574 4.54687 18.732C4.58859 18.8901 4.67147 19.0344 4.78707 19.15C4.96422 19.3236 5.20155 19.4221 5.44957 19.425L9.13707 18.475ZM9.64957 16.775C9.41905 17.0095 9.12983 17.1779 8.81207 17.2625L7.59957 17.5875L6.34957 16.3375L6.67457 15.125C6.76087 14.8079 6.92899 14.5191 7.16207 14.2875L7.63707 13.825L10.1246 16.3125L9.64957 16.775ZM11.0121 15.425L8.52457 12.9375L16.9371 4.525L19.4246 7.0125L11.0121 15.425ZM21.5746 4.8625L20.3121 6.125L17.8246 3.6375L19.0871 2.3625C19.2628 2.18694 19.5011 2.08833 19.7496 2.08833C19.998 2.08833 20.2363 2.18694 20.4121 2.3625L21.5746 3.5375C21.7489 3.71392 21.8467 3.95196 21.8467 4.2C21.8467 4.44804 21.7489 4.68608 21.5746 4.8625Z" fill="black"/>
</svg>
