<svg width="318" height="318" viewBox="0 0 318 318" fill="none" xmlns="http://www.w3.org/2000/svg">
<path d="M158.205 254.4C163.77 254.4 168.476 252.476 172.324 248.628C176.172 244.78 178.09 240.079 178.08 234.525C178.069 228.97 176.151 224.264 172.324 220.406C168.498 216.547 163.791 214.629 158.205 214.65C152.619 214.671 147.918 216.595 144.102 220.422C140.286 224.248 138.362 228.949 138.33 234.525C138.298 240.1 140.222 244.807 144.102 248.644C147.981 252.481 152.682 254.4 158.205 254.4ZM143.895 193.185H173.31C173.31 184.44 174.306 177.55 176.299 172.515C178.292 167.48 183.92 160.59 193.185 151.845C200.075 144.955 205.507 138.394 209.482 132.161C213.457 125.928 215.445 118.444 215.445 109.71C215.445 94.87 210.012 83.475 199.147 75.525C188.282 67.575 175.43 63.6 160.59 63.6C145.485 63.6 133.231 67.575 123.829 75.525C114.427 83.475 107.866 93.015 104.145 104.145L130.38 114.48C131.705 109.71 134.689 104.542 139.332 98.9775C143.974 93.4125 151.061 90.63 160.59 90.63C169.07 90.63 175.43 92.9514 179.67 97.5942C183.91 102.237 186.03 107.336 186.03 112.89C186.03 118.19 184.44 123.161 181.26 127.804C178.08 132.447 174.105 136.751 169.335 140.715C157.675 151.05 150.52 158.867 147.87 164.167C145.22 169.467 143.895 179.14 143.895 193.185ZM159 318C137.005 318 116.335 313.829 96.99 305.486C77.645 297.144 60.8175 285.813 46.5075 271.492C32.1975 257.172 20.8714 240.344 12.5292 221.01C4.18702 201.675 0.0106201 181.005 2.01266e-05 159C-0.0105799 136.994 4.16582 116.324 12.5292 96.99C20.8926 77.6556 32.2187 60.8281 46.5075 46.5075C60.7963 32.1869 77.6238 20.8609 96.99 12.5293C116.356 4.19768 137.026 0.0212803 159 8.03029e-05C180.974 -0.0211197 201.644 4.15528 221.01 12.5293C240.376 20.9033 257.204 32.2293 271.492 46.5075C285.781 60.7857 297.113 77.6132 305.487 96.99C313.861 116.367 318.032 137.037 318 159C317.968 180.963 313.792 201.633 305.471 221.01C297.15 240.387 285.824 257.214 271.492 271.492C257.161 285.77 240.334 297.102 221.01 305.486C201.686 313.871 181.016 318.042 159 318Z" fill="#D99BFF"/>
</svg>
